<svg xmlns="http://www.w3.org/2000/svg" xmlns:xlink="http://www.w3.org/1999/xlink" width="153px" height="153px" viewBox="0 0 153 153" version="1.1">
<g id="surface1">
<path style=" stroke:none;fill-rule:nonzero;fill:#eb6c34;fill-opacity:1;" d="M 16.136719 152.691406 C 13.023438 152.164062 10.679688 151.164062 7.679688 149.082031 C 4.53125 146.902344 1.640625 142.5625 0.535156 138.363281 C -0.144531 135.773438 -0.148438 131.636719 0.527344 128.878906 C 2.21875 121.984375 7.1875 116.582031 13.722656 114.527344 C 16.960938 113.511719 21.941406 113.453125 24.273438 114.40625 C 24.878906 114.648438 25.222656 114.691406 25.375 114.535156 C 25.496094 114.410156 26.539062 112.398438 27.6875 110.070312 C 29.660156 106.074219 32.445312 100.550781 35.246094 95.09375 C 37.046875 91.582031 39.421875 86.910156 41.816406 82.167969 C 44.097656 77.648438 46.738281 72.433594 49.359375 67.273438 C 50.277344 65.464844 51.945312 62.160156 53.066406 59.933594 C 54.1875 57.707031 55.570312 54.992188 56.136719 53.910156 C 56.703125 52.824219 58.449219 49.375 60.015625 46.242188 C 61.582031 43.109375 63.4375 39.445312 64.140625 38.101562 C 65.234375 36 65.371094 35.617188 65.105469 35.363281 C 64.933594 35.203125 64.21875 34.574219 63.511719 33.972656 C 61.125 31.9375 59.292969 28.964844 57.96875 24.992188 C 57.179688 22.628906 56.984375 18.609375 57.527344 15.898438 C 58.5625 10.695312 61.542969 6.191406 65.832031 3.355469 C 68.042969 1.894531 69.660156 1.179688 72.082031 0.601562 C 75.867188 -0.304688 79.046875 -0.191406 82.5625 0.980469 C 85.535156 1.96875 87.523438 3.195312 89.980469 5.550781 C 92.707031 8.167969 94.175781 10.703125 95.398438 14.914062 C 95.757812 16.140625 95.847656 17.078125 95.859375 19.621094 C 95.867188 22.523438 95.816406 22.96875 95.257812 24.769531 C 94.085938 28.546875 92.59375 30.992188 89.683594 33.890625 L 87.773438 35.796875 L 90.398438 41.019531 C 91.839844 43.890625 93.675781 47.523438 94.472656 49.089844 C 95.273438 50.65625 97.210938 54.5 98.78125 57.632812 C 100.351562 60.765625 102.195312 64.414062 102.878906 65.738281 C 103.558594 67.0625 105.210938 70.316406 106.542969 72.96875 C 107.878906 75.621094 110.179688 80.152344 111.65625 83.046875 C 113.136719 85.9375 116.234375 92.050781 118.539062 96.628906 C 120.847656 101.207031 123.148438 105.742188 123.65625 106.707031 C 124.164062 107.671875 125.226562 109.769531 126.015625 111.375 C 126.808594 112.980469 127.609375 114.351562 127.796875 114.421875 C 127.988281 114.496094 128.5625 114.441406 129.074219 114.300781 C 131.023438 113.773438 134.070312 113.566406 136.121094 113.824219 C 144.148438 114.835938 150.332031 120.40625 152.539062 128.613281 C 153.125 130.792969 153.125 136.074219 152.539062 138.253906 C 151.527344 142.027344 149.933594 144.820312 147.40625 147.261719 C 145.414062 149.1875 144.253906 150.003906 141.960938 151.097656 C 138.65625 152.671875 133.523438 153.316406 129.835938 152.617188 C 123.878906 151.488281 118.589844 147.265625 116.019531 141.582031 C 114.695312 138.660156 114.453125 137.578125 114.34375 134.234375 C 114.210938 130.191406 114.710938 127.785156 116.375 124.453125 C 117.523438 122.160156 118.269531 121.132812 120.25 119.128906 C 121.234375 118.132812 122.042969 117.207031 122.042969 117.074219 C 122.042969 116.945312 121.667969 116.136719 121.207031 115.277344 C 120.3125 113.613281 113.925781 101.027344 110.300781 93.78125 C 105.300781 83.796875 104.125 81.5 103.882812 81.25 C 103.6875 81.046875 103.339844 81.191406 102.335938 81.898438 C 99.496094 83.90625 95.601562 86.605469 90.167969 90.339844 C 87.027344 92.5 83.101562 95.210938 81.445312 96.363281 C 79.785156 97.519531 74.601562 101.085938 69.921875 104.296875 C 42.238281 123.277344 38.632812 125.777344 38.175781 126.289062 C 37.839844 126.671875 37.84375 126.796875 38.277344 128.3125 C 38.609375 129.480469 38.769531 130.78125 38.847656 133.007812 C 38.945312 135.675781 38.898438 136.328125 38.496094 137.9375 C 37.90625 140.3125 36.253906 143.746094 34.765625 145.703125 C 31.992188 149.355469 27.46875 151.929688 22.433594 152.726562 C 20.074219 153.101562 18.46875 153.09375 16.136719 152.691406 Z M 38.101562 118.679688 C 39.789062 117.5 44.707031 114.117188 49.03125 111.167969 C 53.355469 108.21875 58.441406 104.734375 60.339844 103.425781 C 62.234375 102.117188 65.671875 99.75 67.984375 98.160156 C 70.296875 96.570312 73.445312 94.402344 74.984375 93.339844 C 79.691406 90.089844 83.6875 87.328125 86.398438 85.453125 C 87.820312 84.472656 90.484375 82.632812 92.320312 81.367188 C 94.160156 80.105469 96.351562 78.566406 97.195312 77.953125 C 98.042969 77.339844 99.011719 76.6875 99.347656 76.5 C 99.691406 76.3125 100.199219 75.972656 100.484375 75.742188 L 101 75.324219 L 99.75 72.832031 C 99.0625 71.460938 98.335938 70.042969 98.132812 69.683594 C 97.9375 69.320312 96.96875 67.398438 95.984375 65.410156 C 95 63.421875 93.351562 60.167969 92.320312 58.179688 C 91.289062 56.191406 88.675781 51.015625 86.511719 46.679688 C 84.347656 42.339844 82.464844 38.671875 82.332031 38.523438 C 82.144531 38.316406 81.8125 38.324219 80.800781 38.574219 C 78.980469 39.011719 73.929688 39.003906 72.226562 38.554688 C 70.980469 38.226562 70.894531 38.230469 70.613281 38.609375 C 70.449219 38.832031 68.921875 41.820312 67.21875 45.253906 C 65.515625 48.6875 62.804688 54.109375 61.191406 57.304688 C 59.582031 60.5 56.851562 65.921875 55.121094 69.355469 C 53.394531 72.785156 51.085938 77.371094 49.992188 79.539062 C 48.898438 81.710938 47.015625 85.457031 45.808594 87.867188 C 44.597656 90.277344 42.757812 93.921875 41.71875 95.972656 C 34.171875 110.820312 31.15625 116.875 31.15625 117.15625 C 31.15625 117.519531 34.40625 120.835938 34.757812 120.835938 C 34.910156 120.835938 36.414062 119.867188 38.101562 118.679688 Z M 38.101562 118.679688 "/>
</g>
</svg>